<?xml version="1.0" standalone="no"?><!DOCTYPE svg PUBLIC "-//W3C//DTD SVG 1.1//EN" "http://www.w3.org/Graphics/SVG/1.1/DTD/svg11.dtd"><svg t="1579075903524" class="icon" viewBox="0 0 1024 1024" version="1.1" xmlns="http://www.w3.org/2000/svg" p-id="4225" xmlns:xlink="http://www.w3.org/1999/xlink" width="200" height="200"><defs><style type="text/css"></style></defs><path d="M891.3 861.1H694.4c-13.6 0-24.6-11-24.6-24.6s11-24.6 24.6-24.6h196.9c13.6 0 24.6 11 24.6 24.6s-11 24.6-24.6 24.6z" p-id="4226"></path><path d="M792.9 959.6c-13.6 0-24.6-11-24.6-24.6V738c0-13.6 11-24.6 24.6-24.6s24.6 11 24.6 24.6v196.9c0 13.6-11 24.7-24.6 24.7zM513.7 440.9c-104.1 0-188.7-84.7-188.7-188.7 0-104.1 84.7-188.7 188.7-188.7s188.7 84.7 188.7 188.7c0.1 104.1-84.6 188.7-188.7 188.7z m0-328.2c-76.9 0-139.5 62.6-139.5 139.5s62.6 139.5 139.5 139.5 139.5-62.6 139.5-139.5-62.5-139.5-139.5-139.5zM197.5 915.7c-16 0-45.7-1.8-62.1-13.8-23.2-16.8-26.8-37.2-27.4-53-0.6-14.6 3.3-30.3 6.6-44.1l1.7-7.1C158.9 615.9 317.3 489 501.5 489c70.1 0 138.9 18.9 199.1 54.5 13.5 8 26.7 16.9 39.1 26.5 10.8 8.3 12.8 23.7 4.5 34.5s-23.7 12.8-34.5 4.5c-10.9-8.4-22.4-16.2-34.2-23.1-52.6-31.2-112.8-47.7-174-47.7-161.2 0-299.9 111.3-337.2 270.7l-1.8 7.5c-2.6 10.7-5.6 22.9-5.3 30.7 0.3 8.6 1.4 10.8 7.1 15 4.4 2.5 23 4.6 37.8 4.3h345.5c13.6 0 24.6 11 24.6 24.6s-11 24.6-24.6 24.6H202.9c-1.6 0.1-3.4 0.1-5.4 0.1z" p-id="4227"></path></svg>