<?xml version="1.0" standalone="no"?><!DOCTYPE svg PUBLIC "-//W3C//DTD SVG 1.1//EN" "http://www.w3.org/Graphics/SVG/1.1/DTD/svg11.dtd"><svg t="1579142073079" class="icon" viewBox="0 0 1063 1024" version="1.1" xmlns="http://www.w3.org/2000/svg" p-id="7820" xmlns:xlink="http://www.w3.org/1999/xlink" width="207.6171875" height="200"><defs><style type="text/css"></style></defs><path d="M980.696517 319.681592a42.029851 42.029851 0 0 0-42.02985 42.029851V917.014925a22.925373 22.925373 0 0 1-22.925373 22.925374H106.985075a22.925373 22.925373 0 0 1-22.925374-22.925374V106.985075A22.925373 22.925373 0 0 1 106.985075 85.333333h570.587064a40.756219 40.756219 0 0 0 40.756219-42.02985 40.756219 40.756219 0 0 0-40.756219-43.303483H106.985075A106.985075 106.985075 0 0 0 0 106.985075V917.014925a108.258706 108.258706 0 0 0 106.985075 101.890548h808.756219A108.258706 108.258706 0 0 0 1018.905473 917.014925V361.711443a42.029851 42.029851 0 0 0-38.208956-42.029851z" p-id="7821"></path><path d="M1052.0199 12.736318a42.029851 42.029851 0 0 0-59.860696 0l-636.81592 636.815921a40.756219 40.756219 0 0 0 0 58.587064 39.482587 39.482587 0 0 0 58.587064 0l636.815921-636.81592A43.303483 43.303483 0 0 0 1052.0199 12.736318z" p-id="7822"></path></svg>