<svg t="1579147030475" class="icon" viewBox="0 0 1024 1024" version="1.1" xmlns="http://www.w3.org/2000/svg" p-id="8826" width="200" height="200"><path d="M518.827 763.733c-98.19 0-177.778-79.587-177.778-177.777s79.587-177.778 177.778-177.778 177.777 79.587 177.777 177.778-79.587 177.777-177.777 177.777z m0-99.555a78.222 78.222 0 1 0 0-156.445 78.222 78.222 0 0 0 0 156.445z" p-id="8827"></path><path d="M522.468 814.52c124.53 0 249.287-73.244 374.357-224.198C787.669 439.268 663.58 366.08 522.468 366.08c-141.256 0-269.91 73.33-387.57 224.284 133.575 150.799 262.87 224.157 387.57 224.157zM895.53 434.177c36.75 37.433 71.68 81.038 104.803 130.745l19.911 29.88-22.087 28.331c-149.874 192.185-308.451 290.93-475.69 290.93-166.685 0-329.743-98.176-489.572-289.664L8.149 594.773l22.571-31.331c44.743-62.123 91.819-114.674 141.17-157.483l-84.338-89.827a35.556 35.556 0 1 1 51.84-48.669l88.79 94.578c51.342-35.726 104.96-61.525 160.767-77.227L345.87 183.14a35.556 35.556 0 1 1 65.48-27.734l48.739 115.001a499.527 499.527 0 0 1 62.379-3.868c36.508 0 72.007 3.882 106.481 11.62l56.946-125.299a35.556 35.556 0 0 1 64.74 29.44l-53.106 116.822c51.043 19.91 99.612 48.938 145.621 86.898l103.936-103.95a35.556 35.556 0 0 1 50.29 50.29L895.545 434.19z" p-id="8828"></path></svg>